<svg width="24" height="24" viewBox="0 0 24 24" fill="none" xmlns="http://www.w3.org/2000/svg">
<path d="M23.1834 8.50688L23.1907 8.50261L19.8255 2.63707L19.8982 2.62154C20.2023 2.55584 20.4192 2.28675 20.4192 1.97571V1.67593C20.4192 1.2553 20.0309 0.941633 19.6195 1.03044L4.10143 4.37743C3.79733 4.44312 3.58044 4.71221 3.58044 5.02326V5.32303C3.58044 5.73148 3.94659 6.03553 4.34416 5.97217L0.808924 12.1345L0.816159 12.1388H0C0 14.2344 2.20687 15.9332 4.92915 15.9332C7.65142 15.9332 9.85834 14.2345 9.85834 12.1388H9.15837L9.16561 12.1345L5.49078 5.72886L11.1744 4.50289V21.5402C8.41446 21.7535 7.7462 22.9847 7.7462 22.9847H16.2706C16.2706 22.9847 15.5997 21.7482 12.8253 21.5385V4.14694L17.9697 3.03726L14.8347 8.50261L14.842 8.50688H14.1417C14.1417 10.6025 16.3485 12.3013 19.0709 12.3013C21.7931 12.3013 24 10.6025 24 8.50688H23.1834V8.50688ZM1.94836 12.1388L4.98693 6.84183L8.02554 12.1388H1.94836V12.1388ZM15.9738 8.50688L19.0123 3.20958L22.0512 8.50688H15.9738Z" fill="#CCCCCC"/>
</svg>
